:SAMPLES-PER-SECOND 30
:FULLY-SPECIFIED
:DEGREES
129
root  -53.622 40.364 -21.6138 177.061 11.5574 173.397
RightUpLeg  -23.9798 -6.75567 -4.67268
RightLeg  27.581 -6.33547 -3.92542
RightFoot  -3.29727 -0.055136 0.506159
RightToes  2.32829e-010 0 -3.6325e-017
Spine  11.2586 -0.273185 -2.21898
Spine1  2.2398 -0.307575 -0.650856
HEad  -18.4413 5.68567 -0.911277
LeftShoulder1  6.58867 -9.60126 -43.7329
LeftArm  -7.86483 26.9683 -29.9897
LeftForeArm  168.794 -68.5392 -155.116
LeftHand  -0.244104 0.0205437 5.32207
RightShoulder  5.19947 8.5069 37.2695
RightArm  8.67033 -31.5033 26.798
RightForeArm  35.53 73.1449 36.2938
RightHand  -0.191851 -3.20306 -9.43538
LeftUpLeg  -4.40625 16.1944 -5.34392
LeftLeg  21.3695 3.79842 1.92329
LeftFoot  -8.46861 0.107639 -2.2371
LeftToes  -1.53708e-010 -3.96652e-011 -3.29181e-011
130
root  -53.346 40.6146 -23.1562 176.41 11.7251 173.991
RightUpLeg  -20.8992 -9.21975 -3.2078
RightLeg  12.5975 -4.68275 -0.477528
RightFoot  -2.96003 -0.0847629 0.891538
RightToes  2.32829e-010 0 -3.6325e-017
Spine  11.3585 -0.650105 -0.96908
Spine1  1.83227 -0.384316 -1.56809
HEad  -17.0884 6.4801 -0.717732
LeftShoulder1  6.60935 -9.74018 -43.393
LeftArm  -7.57954 27.461 -29.876
LeftForeArm  166.531 -70.0644 -152.834
LeftHand  -0.244104 0.0205437 5.32207
RightShoulder  4.76139 8.12269 34.9949
RightArm  7.15308 -35.7017 26.3395
RightForeArm  36.2338 71.9669 32.6689
RightHand  -0.14188 -3.35982 -7.43626
LeftUpLeg  0.352998 17.1801 -3.13749
LeftLeg  19.0205 2.43894 0.685336
LeftFoot  -7.6003 0.161013 -3.54529
LeftToes  -1.53708e-010 -3.96652e-011 -3.29181e-011
131
root  -52.987 40.619 -24.7316 175.25 11.0836 174.139
RightUpLeg  -17.042 -5.6101 -4.87433
RightLeg  1.587 -7.12925 2.47171
RightFoot  -2.61254 -0.117746 1.26121
RightToes  2.32829e-010 0 -3.6325e-017
Spine  11.142 -0.994238 -0.522113
Spine1  2.07864 -0.607784 -2.0162
HEad  -15.4031 6.77791 -0.783531
LeftShoulder1  6.56651 -9.69049 -43.2668
LeftArm  -7.39515 27.4181 -29.9147
LeftForeArm  162.957 -72.677 -148.085
LeftHand  -0.244104 0.0205437 5.32207
RightShoulder  4.48145 7.91354 33.3103
RightArm  5.77506 -39.4151 25.7304
RightForeArm  31.7455 70.4348 29.9129
RightHand  -0.196768 -2.65173 -7.84376
LeftUpLeg  4.65861 16.3514 -1.44788
LeftLeg  18.6221 2.05546 -0.0149533
LeftFoot  -7.79178 0.181772 -4.3451
LeftToes  -1.53708e-010 -3.96652e-011 -3.29181e-011
132
root  -52.5736 40.368 -26.3076 174.717 10.0298 173.611
RightUpLeg  -16.1658 -5.81143 -5.47953
RightLeg  -1.26455 -4.19893 2.56151
RightFoot  -0.0138291 -0.202554 2.04742
RightToes  2.32829e-010 0 -3.6325e-017
Spine  9.74396 -1.08054 -0.843672
Spine1  2.63751 -0.734562 -1.97807
HEad  -13.3553 6.2745 -0.844406
LeftShoulder1  6.4042 -9.39091 -43.1684
LeftArm  -7.00116 27.0246 -30.0228
LeftForeArm  155.938 -76.2252 -138.291
LeftHand  -0.244104 0.0205437 5.32207
RightShoulder  4.29486 7.64741 32.5725
RightArm  4.85075 -42.9543 24.5109
RightForeArm  24.5201 69.17 28.6568
RightHand  -0.260417 -2.43769 -9.94999
LeftUpLeg  7.2278 16.367 -1.02059
LeftLeg  20.0104 0.708483 0.213128
LeftFoot  -9.62935 0.13735 -5.63901
LeftToes  -1.53708e-010 -3.96652e-011 -3.29181e-011
133
root  -52.1957 39.9103 -27.7606 174.686 9.11957 173.616
RightUpLeg  -18.3427 -6.64988 -5.26826
RightLeg  4.14656 -2.57197 2.04258
RightFoot  4.82095 0.0470447 0.0346593
RightToes  2.32829e-010 0 -3.6325e-017
Spine  9.01903 -1.07573 0.0892586
Spine1  2.43776 -0.653109 -2.05435
HEad  -11.8611 5.30982 -1.13281
LeftShoulder1  6.16242 -8.88699 -43.228
LeftArm  -6.84478 26.4675 -30.2422
LeftForeArm  135.913 -79.8181 -115.782
LeftHand  -0.244104 0.0205437 5.32207
RightShoulder  4.06029 7.12321 32.2635
RightArm  3.52776 -45.7214 23.5448
RightForeArm  19.4718 68.0773 27.5111
RightHand  -0.272584 -2.69325 -11.376
LeftUpLeg  7.63446 15.327 -0.392971
LeftLeg  24.3825 0.533294 0.648239
LeftFoot  -12.0832 0.0127984 -8.63818
LeftToes  -1.53708e-010 -3.96652e-011 -3.29181e-011
134
root  -51.8874 39.2999 -29.0196 174.07 8.05215 175.437
RightUpLeg  -20.9562 -9.46017 -2.50704
RightLeg  13.2356 -1.61543 1.15751
RightFoot  8.64023 0.903094 -4.83751
RightToes  2.32829e-010 0 -3.6325e-017
Spine  10.8674 -1.58365 3.55405
Spine1  1.35366 -0.716087 -2.7702
HEad  -12.411 4.53635 -1.9313
LeftShoulder1  6.06814 -8.51716 -43.9036
LeftArm  -8.01464 25.6801 -30.5304
LeftForeArm  97.6377 -80.6065 -75.1068
LeftHand  -0.244104 0.0205437 5.32207
RightShoulder  3.8751 6.59675 32.4254
RightArm  1.17944 -46.0017 23.5261
RightForeArm  14.7879 65.6858 24.5953
RightHand  -0.293242 -2.65702 -12.0944
LeftUpLeg  5.68616 13.2767 2.18129
LeftLeg  34.0309 1.2212 1.26895
LeftFoot  -12.4533 -0.0294467 -11.8557
LeftToes  -1.53708e-010 -3.96652e-011 -3.29181e-011
135
root  -51.6161 38.7195 -30.0613 172.993 6.62146 178.549
RightUpLeg  -22.5509 -13.436 1.87264
RightLeg  21.6638 -0.205504 -0.346329
RightFoot  8.02671 1.59077 -9.02575
RightToes  2.32829e-010 0 -3.6325e-017
Spine  13.9668 -2.59077 8.05
Spine1  0.737162 -1.01054 -3.44894
HEad  -14.9951 3.9512 -2.63829
LeftShoulder1  6.34929 -8.72599 -45.207
LeftArm  -10.7829 24.8239 -30.8212
LeftForeArm  70.2848 -77.2666 -43.7259
LeftHand  -0.244104 0.0205437 5.32207
RightShoulder  4.02293 6.6305 33.7336
RightArm  -2.16128 -42.9465 24.1419
RightForeArm  8.79735 60.6871 19.8153
RightHand  -0.432989 -1.66568 -13.3105
LeftUpLeg  1.34465 10.968 5.87925
LeftLeg  46.9034 2.24393 3.03564
LeftFoot  -7.81567 0.402004 -12.1225
LeftToes  -1.53708e-010 -3.96652e-011 -3.29181e-011
136
root  -51.3476 38.3218 -30.8966 172.394 5.34606 -178.844
RightUpLeg  -23.2056 -13.8958 4.16644
RightLeg  27.5874 -1.48571 -1.0816
RightFoot  4.16691 1.43226 -10.2195
RightToes  2.32829e-010 0 -3.6325e-017
Spine  16.2075 -3.16623 11.0951
Spine1  1.02367 -1.04546 -3.03066
HEad  -17.8656 3.15202 -2.43457
LeftShoulder1  6.84428 -9.36719 -46.358
LeftArm  -13.7257 24.3828 -31.3172
LeftForeArm  59.412 -72.7419 -29.5633
LeftHand  -0.244104 0.0205437 5.32207
RightShoulder  4.52634 7.31513 35.8494
RightArm  -5.8953 -37.7748 24.9358
RightForeArm  4.73228 53.6976 15.0452
RightHand  -0.678215 -0.0677286 -14.8196
LeftUpLeg  -4.79512 9.14619 8.48853
LeftLeg  58.7493 3.00128 5.87495
LeftFoot  -1.19068 0.825746 -9.23136
LeftToes  -1.53708e-010 -3.96652e-011 -3.29181e-011
137
root  -51.0545 38.2486 -31.6289 172.601 4.67993 -178.135
RightUpLeg  -23.17 -14.7436 4.83196
RightLeg  30.0301 -1.27829 -1.04816
RightFoot  1.07832 1.04275 -9.49088
RightToes  2.32829e-010 0 -3.6325e-017
Spine  17.3049 -2.68203 11.5144
Spine1  1.04002 -0.510003 -2.0505
HEad  -19.687 2.07987 -1.48106
LeftShoulder1  7.17646 -9.87505 -46.7794
LeftArm  -14.9836 24.4761 -31.7861
LeftForeArm  50.8176 -68.343 -22.9302
LeftHand  -0.244104 0.0205437 5.32207
RightShoulder  5.03072 8.05972 37.4859
RightArm  -9.1358 -32.5223 26.1933
RightForeArm  3.99147 47.1599 11.7926
RightHand  -0.881113 1.2305 -15.5543
LeftUpLeg  -11.0726 8.82599 8.69497
LeftLeg  66.6801 3.04087 8.40163
LeftFoot  1.06235 0.658848 -6.00552
LeftToes  -1.53708e-010 -3.96652e-011 -3.29181e-011
138
root  -50.7596 38.5714 -32.3563 173.228 4.44833 -178.783
RightUpLeg  -21.9207 -15.947 4.30218
RightLeg  28.9602 -0.493176 -0.546252
RightFoot  0.455617 0.932086 -8.9689
RightToes  2.32829e-010 0 -3.6325e-017
Spine  17.8429 -1.70384 10.7275
Spine1  0.304391 0.344036 -1.95036
HEad  -20.5378 0.95874 -0.72552
LeftShoulder1  7.27592 -10.0739 -46.7324
LeftArm  -14.2493 24.6301 -31.4497
LeftForeArm  41.233 -63.9826 -19.0445
LeftHand  -0.244104 0.0205437 5.32207
RightShoulder  5.26972 8.44535 38.0569
RightArm  -10.7811 -28.3216 28.1738
RightForeArm  3.57889 43.229 10.2777
RightHand  -0.925372 1.73381 -15.1905
LeftUpLeg  -16.1863 9.42994 7.02268
LeftLeg  69.6646 2.94927 9.61068
LeftFoot  -1.64113 0.361008 -4.1561
LeftToes  -1.53708e-010 -3.96652e-011 -3.29181e-011
139
root  -50.5323 39.0854 -33.0692 174.055 4.23383 -179.294
RightUpLeg  -20.0139 -17.4447 3.89288
RightLeg  26.0314 0.718138 0.0966695
RightFoot  0.863679 0.958503 -8.88325
RightToes  2.32829e-010 0 -3.6325e-017
Spine  17.7673 -1.05309 10.8737
Spine1  -0.349116 1.1167 -3.03706
HEad  -20.7767 0.050116 -0.715029
LeftShoulder1  7.30832 -10.1671 -46.6189
LeftArm  -12.8112 24.4768 -30.182
LeftForeArm  35.3233 -59.7101 -16.0605
LeftHand  -0.244104 0.0205437 5.32207
RightShoulder  5.33947 8.61938 37.9994
RightArm  -10.1497 -25.1513 30.3549
RightForeArm  2.33459 42.2848 10.0345
RightHand  -0.858287 1.65357 -14.2668
LeftUpLeg  -19.9195 9.59751 5.09373
LeftLeg  68.0169 3.12905 9.30708
LeftFoot  -5.48882 0.240531 -4.1042
LeftToes  -1.53708e-010 -3.96652e-011 -3.29181e-011
140
root  -50.3701 39.5992 -33.7492 175.009 3.90404 -179.431
RightUpLeg  -17.9294 -18.5132 3.52181
RightLeg  22.5526 1.76426 0.940062
RightFoot  1.2864 0.938172 -8.3809
RightToes  2.32829e-010 0 -3.6325e-017
Spine  16.9386 -0.701449 11.5576
Spine1  -0.534339 1.60459 -4.13027
HEad  -20.3386 -0.495053 -1.21931
LeftShoulder1  7.32834 -10.2452 -46.4786
LeftArm  -11.8006 24.2789 -28.5169
LeftForeArm  34.4765 -55.7423 -13.5584
LeftHand  -0.244104 0.0205437 5.32207
RightShoulder  5.42295 8.83859 37.8974
RightArm  -7.94351 -22.7227 31.8772
RightForeArm  3.20123 43.4088 10.3893
RightHand  -0.759495 1.38894 -13.1231
LeftUpLeg  -22.0584 9.15939 3.61789
LeftLeg  62.4403 4.0007 8.86148
LeftFoot  -8.14391 0.178544 -4.62936
LeftToes  -1.53708e-010 -3.96652e-011 -3.29181e-011
141
root  -50.2089 40.0736 -34.4054 175.755 3.55666 -179.84
RightUpLeg  -15.2642 -16.5826 1.80936
RightLeg  18.76 -0.346298 2.0871
RightFoot  2.06005 0.906043 -7.57507
RightToes  2.32829e-010 0 -3.6325e-017
Spine  15.9514 -0.304926 11.1902
Spine1  -0.712219 1.83048 -4.3568
HEad  -19.2264 -0.696928 -1.81276
LeftShoulder1  7.24575 -10.2002 -46.095
LeftArm  -11.1815 24.3882 -26.6451
LeftForeArm  34.5223 -52.1522 -11.6806
LeftHand  -0.244104 0.0205437 5.32207
RightShoulder  5.5542 9.11585 37.9693
RightArm  -5.71283 -20.9881 32.4454
RightForeArm  6.89445 45.1935 10.8128
RightHand  -0.625626 0.922396 -11.5992
LeftUpLeg  -21.8689 8.89154 2.35895
LeftLeg  53.1028 5.7192 8.57236
LeftFoot  -10.8061 0.0870938 -5.03106
LeftToes  -1.53708e-010 -3.96652e-011 -3.29181e-011
142
root  -50.0383 40.4531 -35.0533 175.995 3.53676 179.688
RightUpLeg  -12.2931 -13.0169 0.00214889
RightLeg  15.1339 -4.09861 3.13845
RightFoot  2.86613 0.945964 -7.41367
RightToes  2.32829e-010 0 -3.6325e-017
Spine  15.1826 0.12446 10.397
Spine1  -0.873491 2.06148 -4.40488
HEad  -17.7878 -0.675038 -2.25122
LeftShoulder1  6.97954 -9.96309 -45.1489
LeftArm  -10.5055 24.5974 -24.3235
LeftForeArm  32.9185 -48.7696 -10.3211
LeftHand  -0.244104 0.0205437 5.32207
RightShoulder  5.67909 9.35077 38.1307
RightArm  -4.55355 -19.8857 32.3803
RightForeArm  9.44029 46.2192 11.0376
RightHand  -0.49786 0.302049 -10.2371
LeftUpLeg  -19.0908 9.31542 1.54576
LeftLeg  40.1389 6.81011 6.57727
LeftFoot  -12.9268 0.00548568 -5.44831
LeftToes  -1.53708e-010 -3.96652e-011 -3.29181e-011
143
root  -49.9106 40.6659 -35.7103 175.865 4.20412 179.888
RightUpLeg  -9.70141 -10.1866 -0.275988
RightLeg  12.5696 -6.46615 3.73802
RightFoot  2.80578 1.01061 -7.97399
RightToes  2.32829e-010 0 -3.6325e-017
Spine  14.1971 0.502742 10.831
Spine1  -0.436968 2.56148 -5.20929
HEad  -16.4153 -0.454596 -2.44164
LeftShoulder1  6.48273 -9.48997 -43.3727
LeftArm  -9.88741 24.3869 -21.6293
LeftForeArm  31.3927 -45.1691 -9.06608
LeftHand  -0.244104 0.0205437 5.32207
RightShoulder  5.7348 9.49978 38.0567
RightArm  -4.63978 -19.0777 31.883
RightForeArm  8.57813 45.6555 10.8772
RightHand  -0.476925 0.186481 -9.99152
LeftUpLeg  -14.7858 10.2841 1.59674
LeftLeg  25.9327 5.41075 3.26525
LeftFoot  -10.704 0.0835099 -4.90611
LeftToes  -1.53708e-010 -3.96652e-011 -3.29181e-011
